<svg width="145" height="74" viewBox="0 0 145 74" fill="none" xmlns="http://www.w3.org/2000/svg">
<g clip-path="url(#clip0)">
<circle cx="120.5" cy="24.5" r="24.5" fill="#B9D9D2"/>
<path d="M109.936 24.4268C110.515 24.5948 110.963 24.8888 111.28 25.3088C111.597 25.7288 111.756 26.2422 111.756 26.8488C111.756 27.6888 111.443 28.3562 110.818 28.8508C110.193 29.3362 109.343 29.5788 108.27 29.5788H103.538V19.6108H108.13C109.166 19.6108 109.983 19.8442 110.58 20.3108C111.187 20.7682 111.49 21.3982 111.49 22.2008C111.49 22.7235 111.35 23.1808 111.07 23.5728C110.799 23.9648 110.421 24.2495 109.936 24.4268ZM105.666 23.6708H107.766C108.326 23.6708 108.741 23.5775 109.012 23.3908C109.292 23.1948 109.432 22.8962 109.432 22.4948C109.432 22.0842 109.292 21.7808 109.012 21.5848C108.741 21.3888 108.326 21.2908 107.766 21.2908H105.666V23.6708ZM108.018 27.8988C108.606 27.8988 109.031 27.8008 109.292 27.6048C109.563 27.3995 109.698 27.0775 109.698 26.6388C109.698 26.1908 109.563 25.8642 109.292 25.6588C109.031 25.4535 108.606 25.3508 108.018 25.3508H105.666V27.8988H108.018Z" fill="#374B5B"/>
<path d="M113.286 29.5788V19.6108H120.16V21.3048H115.414V23.6568H119.866V25.3648H115.414V27.8848H120.16V29.5788H113.286Z" fill="#374B5B"/>
<path d="M124.072 29.5788V21.3888H120.95V19.6108H129.406V21.3888H126.284V29.5788H124.072Z" fill="#374B5B"/>
<path d="M136.925 29.5788L135.973 27.3668H131.311L130.359 29.5788H128.161L132.739 19.6108H134.503L139.081 29.5788H136.925ZM132.039 25.7008H135.259L133.649 21.9628L132.039 25.7008Z" fill="#374B5B"/>
<path d="M12.6897 16.6637C13.9573 16.6624 15.2108 16.929 16.3681 17.4459C17.5255 17.9628 18.5606 18.7183 19.4056 19.6631C20.3688 20.6974 21.1181 21.9119 21.6103 23.2367C22.1026 24.5616 22.3282 25.9706 22.2741 27.3829C22.3609 30.2996 21.3047 33.1347 19.3308 35.2836C17.3686 37.4038 15.1341 38.4638 12.6274 38.4638C11.4152 38.4757 10.2176 38.1992 9.13342 37.6571C8.04919 37.115 7.10942 36.3228 6.39165 35.346V38.1396H0.511353V9H6.40412V19.37C7.18868 18.4849 8.15865 17.7835 9.24504 17.3157C10.3314 16.848 11.5076 16.6253 12.6897 16.6637ZM6.32306 27.6012C6.25961 29.1321 6.77122 30.6313 7.75727 31.8041C8.17851 32.3157 8.70793 32.7276 9.30743 33.0101C9.90694 33.2926 10.5616 33.4387 11.2243 33.4378C11.9017 33.4344 12.5706 33.287 13.1866 33.0053C13.8027 32.7237 14.3517 32.3142 14.7974 31.8041C15.8403 30.6661 16.3916 29.1623 16.3314 27.6199C16.3847 26.0592 15.8557 24.5345 14.8473 23.3422C14.4208 22.8027 13.8779 22.3666 13.2592 22.0665C12.6405 21.7663 11.9619 21.6098 11.2742 21.6087C10.5944 21.6091 9.92378 21.7656 9.31402 22.0661C8.70425 22.3667 8.17165 22.8033 7.75727 23.3422C6.78441 24.5442 6.27546 26.0555 6.32306 27.6012Z" fill="#1F1F1F"/>
<path d="M42.665 38.152H37.1214V35.5954C36.4791 36.4828 35.6356 37.2055 34.6601 37.7041C33.6846 38.2026 32.6048 38.463 31.5092 38.4638C29.4638 38.5216 27.4678 37.8297 25.8971 36.5182C25.1504 35.883 24.5576 35.0866 24.1633 34.189C23.7691 33.2914 23.5837 32.316 23.621 31.3363C23.621 29.1746 24.4068 27.5575 25.9782 26.485C27.5496 25.4124 29.6967 24.8741 32.4197 24.8699H36.7909V24.7514C36.7909 22.4982 35.5978 21.3716 33.2116 21.3716C32.1051 21.3926 31.0104 21.6035 29.9753 21.9952C28.9392 22.3454 27.9648 22.8568 27.0881 23.5105L24.4566 19.7005C27.2124 17.6881 30.5479 16.6265 33.9599 16.6761C36.2136 16.575 38.4333 17.2532 40.2455 18.5967C41.8751 19.8813 42.6878 21.9121 42.6837 24.6891L42.665 38.152ZM36.7286 30.0954V29.0728H33.0495C30.6924 29.0728 29.5138 29.8065 29.5138 31.274C29.4961 31.613 29.5645 31.9509 29.7128 32.2563C29.8612 32.5616 30.0845 32.8244 30.3619 33.02C31.0803 33.4774 31.925 33.6956 32.7751 33.6436C33.7806 33.6624 34.7607 33.3269 35.5438 32.6957C35.9342 32.3881 36.2455 31.9916 36.4516 31.5393C36.6577 31.087 36.7527 30.5919 36.7286 30.0954Z" fill="#1F1F1F"/>
<path d="M57.7492 16.6637C59.0167 16.6624 60.2702 16.929 61.4276 17.4459C62.585 17.9628 63.62 18.7183 64.4651 19.6631C65.4305 20.6964 66.182 21.9104 66.6765 23.2353C67.1709 24.5602 67.3984 25.9698 67.346 27.3829C67.4328 30.2996 66.3766 33.1347 64.4027 35.2836C62.4364 37.4038 60.2019 38.4638 57.6993 38.4638C56.487 38.4767 55.289 38.2007 54.2046 37.6585C53.1203 37.1163 52.1806 36.3236 51.4636 35.346V38.1396H45.5708V9H51.4636V19.37C52.2481 18.4849 53.2181 17.7835 54.3045 17.3157C55.3909 16.848 56.567 16.6253 57.7492 16.6637ZM51.3825 27.6012C51.3191 29.1321 51.8307 30.6313 52.8167 31.8041C53.2393 32.3173 53.7707 32.7302 54.3725 33.0128C54.9743 33.2953 55.6314 33.4405 56.2963 33.4378C56.9726 33.4336 57.6403 33.2857 58.2552 33.0041C58.87 32.7224 59.4181 32.3134 59.8631 31.8041C60.906 30.6661 61.4573 29.1623 61.3971 27.6199C61.4486 26.0584 60.9174 24.5336 59.9068 23.3422C59.4802 22.8027 58.9373 22.3666 58.3186 22.0665C57.6999 21.7663 57.0214 21.6098 56.3337 21.6087C55.6539 21.6091 54.9832 21.7656 54.3735 22.0661C53.7637 22.3667 53.2311 22.8033 52.8167 23.3422C51.8439 24.5442 51.3349 26.0555 51.3825 27.6012Z" fill="#1F1F1F"/>
<path d="M73.1078 46.4768C70.908 46.4286 68.8112 45.5354 67.2525 43.9825L69.9276 39.6175C70.3169 40.0496 70.7878 40.4005 71.3133 40.6499C71.8388 40.8992 72.4084 41.0421 72.9894 41.0704C73.2734 41.0635 73.5513 40.9865 73.7982 40.8461C74.0452 40.7058 74.2536 40.5065 74.4049 40.266C74.7926 39.7792 75.0114 39.1795 75.0284 38.5574C75.0284 37.9504 72.3034 30.7731 66.8534 17.0254H73.139L78.2523 30.2015L83.403 17.0379H89.6887L79.8674 41.9184C79.3419 43.2923 78.4 44.4675 77.1735 45.2795C75.9679 46.0749 74.5521 46.4918 73.1078 46.4768Z" fill="#1F1F1F"/>
<path d="M1.004 50.1558C0.5155 49.673 0.182023 49.0555 0.0461622 48.3822C-0.0896983 47.7089 -0.0217736 47.0104 0.24126 46.3759C0.504293 45.7414 0.950495 45.1997 1.52287 44.82C2.09524 44.4404 2.7678 44.2399 3.45464 44.2443C3.92107 44.2245 4.38668 44.2993 4.82346 44.4641C5.26024 44.6289 5.65916 44.8804 5.9962 45.2035C6.33324 45.5265 6.60145 45.9144 6.78467 46.3438C6.96789 46.7732 7.06235 47.2352 7.06235 47.702C7.06235 48.1689 6.96789 48.6309 6.78467 49.0603C6.60145 49.4897 6.33324 49.8776 5.9962 50.2006C5.65916 50.5236 5.26024 50.7751 4.82346 50.94C4.38668 51.1048 3.92107 51.1796 3.45464 51.1598C2.99926 51.1686 2.5469 51.084 2.12543 50.9114C1.70396 50.7387 1.32231 50.4816 1.004 50.1558ZM6.40414 73.9825H0.511376V52.8122H6.40414V73.9825Z" fill="#1F1F1F"/>
<path d="M15.4771 62.166V73.9515H9.58435V52.8124H15.4771V55.1445C16.2399 54.3053 17.1672 53.632 18.2014 53.1664C19.2355 52.7008 20.3544 52.4529 21.4884 52.4382C22.5368 52.4159 23.5781 52.6143 24.545 53.0203C25.5118 53.4264 26.3825 54.0311 27.1005 54.7953C28.6054 56.3667 29.3579 58.4619 29.3579 61.0809V73.9265H23.4526V62.0038C23.4526 58.7529 22.2616 57.1275 19.8795 57.1275C19.308 57.1203 18.7408 57.2268 18.2109 57.4409C17.681 57.655 17.1989 57.9724 16.7929 58.3746C16.323 58.881 15.9634 59.4795 15.7369 60.1321C15.5104 60.7848 15.422 61.4773 15.4771 62.166Z" fill="#1F1F1F"/>
<path d="M48.5141 57.0588V66.5247C48.4728 67.2167 48.6957 67.8987 49.1376 68.4328C49.3226 68.6486 49.5522 68.8217 49.8106 68.9401C50.069 69.0585 50.35 69.1195 50.6342 69.1187C51.1868 69.1133 51.7297 68.9736 52.2164 68.7118C52.703 68.4501 53.1187 68.074 53.4278 67.6159L55.629 71.7377C54.0875 73.2823 52.0113 74.1753 49.8298 74.232C48.8494 74.2636 47.8732 74.0898 46.964 73.7218C46.0547 73.3537 45.2325 72.7995 44.5501 72.0949C43.8678 71.3902 43.3403 70.5506 43.0017 69.6299C42.6631 68.7093 42.5208 67.728 42.5839 66.7492V57.0588H40.0896V52.8123H42.5839V46.4893H48.5141V52.8123H53.6274V57.0588H48.5141Z" fill="#1F1F1F"/>
<path d="M78.1399 63.3819C78.1699 64.8217 77.9024 66.2521 77.3541 67.5837C76.8058 68.9152 75.9885 70.1193 74.9535 71.1205C72.7818 73.1411 69.9256 74.2644 66.9593 74.2644C63.993 74.2644 61.1367 73.1411 58.9651 71.1205C56.9281 69.0562 55.786 66.2727 55.786 63.3726C55.786 60.4725 56.9281 57.689 58.9651 55.6247C61.1312 53.5931 63.9895 52.4624 66.9593 52.4624C69.929 52.4624 72.7874 53.5931 74.9535 55.6247C75.9879 56.6303 76.8045 57.8378 77.3526 59.1723C77.9008 60.5067 78.1688 61.9396 78.1399 63.3819ZM61.7337 63.3819C61.6607 64.9269 62.1804 66.4414 63.1867 67.616C63.6707 68.1313 64.2551 68.542 64.904 68.8228C65.5528 69.1035 66.2523 69.2484 66.9593 69.2484C67.6663 69.2484 68.3657 69.1035 69.0146 68.8228C69.6634 68.542 70.2479 68.1313 70.7319 67.616C71.7419 66.4474 72.2682 64.9376 72.2035 63.3944C72.2661 61.8458 71.7403 60.331 70.7319 59.1541C70.2513 58.633 69.668 58.2171 69.0187 57.9326C68.3694 57.6482 67.6682 57.5013 66.9593 57.5013C66.2504 57.5013 65.5492 57.6482 64.8999 57.9326C64.2506 58.2171 63.6672 58.633 63.1867 59.1541C62.1879 60.3305 61.6692 61.8401 61.7337 63.3819Z" fill="#1F1F1F"/>
<path d="M90.8671 73.9514H84.806L77.6162 52.8123H83.7085L87.8303 65.583L91.9584 52.8123H97.6516L101.78 65.583L105.901 52.8123H112.031L104.841 73.9514H98.7117L94.7832 62.4402L90.8671 73.9514Z" fill="#1F1F1F"/>
</g>
<defs>
<clipPath id="clip0">
<rect width="145" height="74" fill="white"/>
</clipPath>
</defs>
</svg>