<svg width="112" height="66" viewBox="0 0 112 66" fill="none" xmlns="http://www.w3.org/2000/svg">
<path d="M12.6897 7.66372C13.9573 7.66244 15.2108 7.92898 16.3681 8.44587C17.5255 8.96276 18.5606 9.71834 19.4056 10.6631C20.3688 11.6974 21.1181 12.9119 21.6103 14.2367C22.1026 15.5616 22.3282 16.9706 22.2741 18.3829C22.3609 21.2996 21.3047 24.1347 19.3308 26.2836C17.3686 28.4038 15.1341 29.4638 12.6274 29.4638C11.4152 29.4757 10.2176 29.1992 9.13342 28.6571C8.04919 28.115 7.10942 27.3228 6.39165 26.346V29.1396H0.511353V0H6.40412V10.37C7.18868 9.48486 8.15865 8.78346 9.24504 8.31571C10.3314 7.84796 11.5076 7.62535 12.6897 7.66372ZM6.32306 18.6012C6.25961 20.1321 6.77122 21.6313 7.75727 22.8041C8.17851 23.3157 8.70793 23.7276 9.30743 24.0101C9.90694 24.2926 10.5616 24.4387 11.2243 24.4378C11.9017 24.4344 12.5706 24.287 13.1866 24.0053C13.8027 23.7237 14.3517 23.3142 14.7974 22.8041C15.8403 21.6661 16.3916 20.1623 16.3314 18.6199C16.3847 17.0592 15.8557 15.5345 14.8473 14.3422C14.4208 13.8027 13.8779 13.3666 13.2592 13.0665C12.6405 12.7663 11.9619 12.6098 11.2742 12.6087C10.5944 12.6091 9.92378 12.7656 9.31402 13.0661C8.70425 13.3667 8.17165 13.8033 7.75727 14.3422C6.78441 15.5442 6.27546 17.0555 6.32306 18.6012Z" fill="#1F1F1F"/>
<path d="M42.665 29.152H37.1214V26.5954C36.4791 27.4828 35.6356 28.2055 34.6601 28.7041C33.6846 29.2026 32.6048 29.463 31.5092 29.4638C29.4638 29.5216 27.4678 28.8297 25.8971 27.5182C25.1504 26.883 24.5576 26.0866 24.1633 25.189C23.7691 24.2914 23.5837 23.316 23.621 22.3363C23.621 20.1746 24.4068 18.5575 25.9782 17.485C27.5496 16.4124 29.6967 15.8741 32.4197 15.8699H36.7909V15.7514C36.7909 13.4982 35.5978 12.3716 33.2116 12.3716C32.1051 12.3926 31.0104 12.6035 29.9753 12.9952C28.9392 13.3454 27.9648 13.8568 27.0881 14.5105L24.4566 10.7005C27.2124 8.68805 30.5479 7.62655 33.9599 7.67614C36.2136 7.57496 38.4333 8.25321 40.2455 9.59675C41.8751 10.8813 42.6878 12.9121 42.6837 15.6891L42.665 29.152ZM36.7286 21.0954V20.0728H33.0495C30.6924 20.0728 29.5138 20.8065 29.5138 22.274C29.4961 22.613 29.5645 22.9509 29.7128 23.2563C29.8612 23.5616 30.0845 23.8244 30.3619 24.02C31.0803 24.4774 31.925 24.6956 32.7751 24.6436C33.7806 24.6624 34.7607 24.3269 35.5438 23.6957C35.9342 23.3881 36.2455 22.9916 36.4516 22.5393C36.6577 22.087 36.7527 21.5919 36.7286 21.0954Z" fill="#1F1F1F"/>
<path d="M57.7492 7.66372C59.0167 7.66244 60.2702 7.92898 61.4276 8.44587C62.585 8.96276 63.62 9.71834 64.4651 10.6631C65.4305 11.6964 66.182 12.9104 66.6765 14.2353C67.1709 15.5602 67.3984 16.9698 67.346 18.3829C67.4328 21.2996 66.3766 24.1347 64.4027 26.2836C62.4364 28.4038 60.2019 29.4638 57.6993 29.4638C56.487 29.4767 55.289 29.2007 54.2046 28.6585C53.1203 28.1163 52.1806 27.3236 51.4636 26.346V29.1396H45.5708V0H51.4636V10.37C52.2481 9.48486 53.2181 8.78346 54.3045 8.31571C55.3909 7.84796 56.567 7.62535 57.7492 7.66372ZM51.3825 18.6012C51.3191 20.1321 51.8307 21.6313 52.8167 22.8041C53.2393 23.3173 53.7707 23.7302 54.3725 24.0128C54.9743 24.2953 55.6314 24.4405 56.2963 24.4378C56.9726 24.4336 57.6403 24.2857 58.2552 24.0041C58.87 23.7224 59.4181 23.3134 59.8631 22.8041C60.906 21.6661 61.4573 20.1623 61.3971 18.6199C61.4486 17.0584 60.9174 15.5336 59.9068 14.3422C59.4802 13.8027 58.9373 13.3666 58.3186 13.0665C57.6999 12.7663 57.0214 12.6098 56.3337 12.6087C55.6539 12.6091 54.9832 12.7656 54.3735 13.0661C53.7637 13.3667 53.2311 13.8033 52.8167 14.3422C51.8439 15.5442 51.3349 17.0555 51.3825 18.6012Z" fill="#1F1F1F"/>
<path d="M73.1078 37.4768C70.908 37.4286 68.8112 36.5354 67.2525 34.9825L69.9276 30.6175C70.3169 31.0496 70.7878 31.4005 71.3133 31.6499C71.8388 31.8992 72.4084 32.0421 72.9894 32.0704C73.2734 32.0635 73.5513 31.9865 73.7982 31.8461C74.0452 31.7058 74.2536 31.5065 74.4049 31.266C74.7926 30.7792 75.0114 30.1795 75.0284 29.5574C75.0284 28.9504 72.3034 21.7731 66.8534 8.02539H73.139L78.2523 21.2015L83.403 8.03786H89.6887L79.8674 32.9184C79.3419 34.2923 78.4 35.4675 77.1735 36.2795C75.9679 37.0749 74.5521 37.4918 73.1078 37.4768Z" fill="#1F1F1F"/>
<path d="M1.004 41.1558C0.5155 40.673 0.182023 40.0555 0.0461622 39.3822C-0.0896983 38.7089 -0.0217736 38.0104 0.24126 37.3759C0.504293 36.7414 0.950495 36.1997 1.52287 35.82C2.09524 35.4404 2.7678 35.2399 3.45464 35.2443C3.92107 35.2245 4.38668 35.2993 4.82346 35.4641C5.26024 35.6289 5.65916 35.8804 5.9962 36.2035C6.33324 36.5265 6.60145 36.9144 6.78467 37.3438C6.96789 37.7732 7.06235 38.2352 7.06235 38.702C7.06235 39.1689 6.96789 39.6309 6.78467 40.0603C6.60145 40.4897 6.33324 40.8776 5.9962 41.2006C5.65916 41.5236 5.26024 41.7751 4.82346 41.94C4.38668 42.1048 3.92107 42.1796 3.45464 42.1598C2.99926 42.1686 2.5469 42.084 2.12543 41.9114C1.70396 41.7387 1.32231 41.4816 1.004 41.1558ZM6.40414 64.9825H0.511376V43.8122H6.40414V64.9825Z" fill="#1F1F1F"/>
<path d="M15.4771 53.166V64.9515H9.58435V43.8124H15.4771V46.1445C16.2399 45.3053 17.1672 44.632 18.2014 44.1664C19.2355 43.7008 20.3544 43.4529 21.4884 43.4382C22.5368 43.4159 23.5781 43.6143 24.545 44.0203C25.5118 44.4264 26.3825 45.0311 27.1005 45.7953C28.6054 47.3667 29.3579 49.4619 29.3579 52.0809V64.9265H23.4526V53.0038C23.4526 49.7529 22.2616 48.1275 19.8795 48.1275C19.308 48.1203 18.7408 48.2268 18.2109 48.4409C17.681 48.655 17.1989 48.9724 16.7929 49.3746C16.323 49.881 15.9634 50.4795 15.7369 51.1321C15.5104 51.7848 15.422 52.4773 15.4771 53.166Z" fill="#1F1F1F"/>
<path d="M48.5141 48.0588V57.5247C48.4728 58.2167 48.6957 58.8987 49.1376 59.4328C49.3226 59.6486 49.5522 59.8217 49.8106 59.9401C50.069 60.0585 50.35 60.1195 50.6342 60.1187C51.1868 60.1133 51.7297 59.9736 52.2164 59.7118C52.703 59.4501 53.1187 59.074 53.4278 58.6159L55.629 62.7377C54.0875 64.2823 52.0113 65.1753 49.8298 65.232C48.8494 65.2636 47.8732 65.0898 46.964 64.7218C46.0547 64.3537 45.2325 63.7995 44.5501 63.0949C43.8678 62.3902 43.3403 61.5506 43.0017 60.6299C42.6631 59.7093 42.5208 58.728 42.5839 57.7492V48.0588H40.0896V43.8123H42.5839V37.4893H48.5141V43.8123H53.6274V48.0588H48.5141Z" fill="#1F1F1F"/>
<path d="M78.1399 54.3819C78.1699 55.8217 77.9024 57.2521 77.3541 58.5837C76.8058 59.9152 75.9885 61.1193 74.9535 62.1205C72.7818 64.1411 69.9256 65.2644 66.9593 65.2644C63.993 65.2644 61.1367 64.1411 58.9651 62.1205C56.9281 60.0562 55.786 57.2727 55.786 54.3726C55.786 51.4725 56.9281 48.689 58.9651 46.6247C61.1312 44.5931 63.9895 43.4624 66.9593 43.4624C69.929 43.4624 72.7874 44.5931 74.9535 46.6247C75.9879 47.6303 76.8045 48.8378 77.3526 50.1723C77.9008 51.5067 78.1688 52.9396 78.1399 54.3819ZM61.7337 54.3819C61.6607 55.9269 62.1804 57.4414 63.1867 58.616C63.6707 59.1313 64.2551 59.542 64.904 59.8228C65.5528 60.1035 66.2523 60.2484 66.9593 60.2484C67.6663 60.2484 68.3657 60.1035 69.0146 59.8228C69.6634 59.542 70.2479 59.1313 70.7319 58.616C71.7419 57.4474 72.2682 55.9376 72.2035 54.3944C72.2661 52.8458 71.7403 51.331 70.7319 50.1541C70.2513 49.633 69.668 49.2171 69.0187 48.9326C68.3694 48.6482 67.6682 48.5013 66.9593 48.5013C66.2504 48.5013 65.5492 48.6482 64.8999 48.9326C64.2506 49.2171 63.6672 49.633 63.1867 50.1541C62.1879 51.3305 61.6692 52.8401 61.7337 54.3819Z" fill="#1F1F1F"/>
<path d="M90.8671 64.9514H84.806L77.6162 43.8123H83.7085L87.8303 56.583L91.9584 43.8123H97.6516L101.78 56.583L105.901 43.8123H112.031L104.841 64.9514H98.7117L94.7832 53.4402L90.8671 64.9514Z" fill="#1F1F1F"/>
</svg>
