<svg width="20" height="20" viewBox="0 0 20 20" fill="none" xmlns="http://www.w3.org/2000/svg">
<g clip-path="url(#clip0)">
<path d="M19.1667 2.49996C18.3687 3.06285 17.4851 3.49338 16.55 3.77496C16.0481 3.19788 15.3811 2.78887 14.6392 2.60323C13.8973 2.41759 13.1163 2.46429 12.4017 2.737C11.6872 3.00972 11.0737 3.49529 10.6442 4.12805C10.2146 4.76082 9.98976 5.51024 10 6.27496V7.10829C8.53554 7.14626 7.0844 6.82147 5.77585 6.16283C4.4673 5.50419 3.34194 4.53215 2.50001 3.33329C2.50001 3.33329 -0.833323 10.8333 6.66668 14.1666C4.95045 15.3316 2.90597 15.9157 0.833344 15.8333C8.33334 20 17.5 15.8333 17.5 6.24996C17.4992 6.01783 17.4769 5.78629 17.4333 5.55829C18.2838 4.71953 18.884 3.66055 19.1667 2.49996V2.49996Z" stroke="black" stroke-width="2" stroke-linecap="round" stroke-linejoin="round"/>
</g>
<defs>
<clipPath id="clip0">
<rect width="20" height="20" fill="white"/>
</clipPath>
</defs>
</svg>
